<svg xmlns="http://www.w3.org/2000/svg" width="1200" height="430" viewBox="0 0 1200 430" role="img" aria-labelledby="title desc">
  <title id="title">Joshua Philip</title>
  <desc id="desc">Computer science and engineering student at UCLA building applied AI and automation systems.</desc>
  <defs>
    <linearGradient id="background" x1="0" y1="0" x2="1" y2="1">
      <stop offset="0" stop-color="#05070d"/>
      <stop offset="0.55" stop-color="#0a1220"/>
      <stop offset="1" stop-color="#071d38"/>
    </linearGradient>
    <radialGradient id="blueGlow" cx="0.8" cy="0.15" r="0.65">
      <stop offset="0" stop-color="#2774ae" stop-opacity="0.75"/>
      <stop offset="1" stop-color="#2774ae" stop-opacity="0"/>
    </radialGradient>
    <radialGradient id="goldGlow" cx="0.12" cy="0.95" r="0.55">
      <stop offset="0" stop-color="#ffd100" stop-opacity="0.24"/>
      <stop offset="1" stop-color="#ffd100" stop-opacity="0"/>
    </radialGradient>
    <pattern id="grid" width="42" height="42" patternUnits="userSpaceOnUse">
      <path d="M42 0H0V42" fill="none" stroke="#77aee0" stroke-opacity="0.1"/>
    </pattern>
    <linearGradient id="rule" x1="0" y1="0" x2="1" y2="0">
      <stop offset="0" stop-color="#ffd100"/>
      <stop offset="0.3" stop-color="#ffd100"/>
      <stop offset="1" stop-color="#2774ae" stop-opacity="0"/>
    </linearGradient>
  </defs>

  <rect width="1200" height="430" rx="24" fill="url(#background)"/>
  <rect width="1200" height="430" rx="24" fill="url(#blueGlow)"/>
  <rect width="1200" height="430" rx="24" fill="url(#goldGlow)"/>
  <rect width="1200" height="430" rx="24" fill="url(#grid)"/>
  <rect x="1" y="1" width="1198" height="428" rx="23" fill="none" stroke="#78a8d4" stroke-opacity="0.22"/>

  <g opacity="0.65">
    <circle cx="1068" cy="88" r="5" fill="#ffd100"/>
    <circle cx="1090" cy="88" r="5" fill="#2774ae"/>
    <circle cx="1112" cy="88" r="5" fill="#f8fafc" fill-opacity="0.45"/>
    <path d="M910 332h202M1011 231v202" stroke="#88bce9" stroke-opacity="0.25"/>
    <circle cx="1011" cy="332" r="72" fill="none" stroke="#88bce9" stroke-opacity="0.28"/>
    <circle cx="1011" cy="332" r="7" fill="#ffd100"/>
  </g>

  <g font-family="Inter, ui-sans-serif, system-ui, -apple-system, BlinkMacSystemFont, Segoe UI, sans-serif">
    <text x="82" y="92" fill="#ffd100" font-size="17" font-weight="700" letter-spacing="4">LOS ANGELES / 34.0522 N</text>
    <text x="82" y="205" fill="#f8fafc" font-size="78" font-weight="700">Joshua Philip</text>
    <rect x="82" y="235" width="710" height="3" rx="1.5" fill="url(#rule)"/>
    <text x="82" y="286" fill="#a9bdd1" font-size="24" font-weight="500" letter-spacing="0.4">COMPUTER SCIENCE + ENGINEERING / UCLA</text>
    <text x="82" y="340" fill="#e7eef5" font-size="20" font-weight="450">Applied AI</text>
    <circle cx="207" cy="334" r="3" fill="#ffd100"/>
    <text x="226" y="340" fill="#e7eef5" font-size="20" font-weight="450">Automation</text>
    <circle cx="350" cy="334" r="3" fill="#ffd100"/>
    <text x="369" y="340" fill="#e7eef5" font-size="20" font-weight="450">Product Engineering</text>
  </g>

  <path d="M0 405h1200" stroke="#2774ae" stroke-opacity="0.45"/>
  <path d="M82 405h170" stroke="#ffd100" stroke-width="3"/>
</svg>
